{
	"patcher" : 	{
		"fileversion" : 1,
		"rect" : [ 1357.0, 210.0, 581.0, 418.0 ],
		"bglocked" : 0,
		"defrect" : [ 1357.0, 210.0, 581.0, 418.0 ],
		"openrect" : [ 0.0, 0.0, 0.0, 0.0 ],
		"openinpresentation" : 0,
		"default_fontsize" : 12.0,
		"default_fontface" : 0,
		"default_fontname" : "Arial",
		"gridonopen" : 0,
		"gridsize" : [ 15.0, 15.0 ],
		"gridsnaponopen" : 0,
		"toolbarvisible" : 1,
		"boxanimatetime" : 200,
		"imprint" : 0,
		"boxes" : [ 			{
				"box" : 				{
					"maxclass" : "comment",
					"text" : "This will write digital pin 13 HIGH/LOW",
					"numoutlets" : 0,
					"fontname" : "Arial",
					"id" : "obj-27",
					"fontsize" : 12.0,
					"numinlets" : 1,
					"patching_rect" : [ 151.0, 194.0, 240.0, 20.0 ]
				}

			}
, 			{
				"box" : 				{
					"maxclass" : "toggle",
					"numoutlets" : 1,
					"outlettype" : [ "int" ],
					"id" : "obj-23",
					"numinlets" : 1,
					"patching_rect" : [ 125.0, 191.0, 20.0, 20.0 ]
				}

			}
, 			{
				"box" : 				{
					"maxclass" : "message",
					"text" : "13 $1",
					"numoutlets" : 1,
					"outlettype" : [ "" ],
					"fontname" : "Arial",
					"id" : "obj-21",
					"fontsize" : 12.0,
					"numinlets" : 2,
					"patching_rect" : [ 125.0, 220.0, 41.0, 18.0 ]
				}

			}
, 			{
				"box" : 				{
					"maxclass" : "comment",
					"text" : "Message",
					"numoutlets" : 0,
					"fontname" : "Arial",
					"id" : "obj-19",
					"fontsize" : 12.0,
					"numinlets" : 1,
					"patching_rect" : [ 109.0, 314.0, 150.0, 20.0 ]
				}

			}
, 			{
				"box" : 				{
					"maxclass" : "comment",
					"text" : "Select baud",
					"numoutlets" : 0,
					"fontname" : "Arial",
					"id" : "obj-14",
					"fontsize" : 12.0,
					"numinlets" : 1,
					"patching_rect" : [ 158.0, 154.0, 150.0, 20.0 ]
				}

			}
, 			{
				"box" : 				{
					"maxclass" : "message",
					"text" : "baud 115200",
					"numoutlets" : 1,
					"outlettype" : [ "" ],
					"fontname" : "Arial",
					"id" : "obj-15",
					"fontsize" : 12.0,
					"numinlets" : 2,
					"patching_rect" : [ 73.0, 155.0, 80.0, 18.0 ]
				}

			}
, 			{
				"box" : 				{
					"maxclass" : "comment",
					"text" : "Select port",
					"numoutlets" : 0,
					"fontname" : "Arial",
					"id" : "obj-13",
					"fontsize" : 12.0,
					"numinlets" : 1,
					"patching_rect" : [ 126.0, 130.0, 150.0, 20.0 ]
				}

			}
, 			{
				"box" : 				{
					"maxclass" : "message",
					"text" : "port h",
					"numoutlets" : 1,
					"outlettype" : [ "" ],
					"fontname" : "Arial",
					"id" : "obj-12",
					"fontsize" : 12.0,
					"numinlets" : 2,
					"patching_rect" : [ 75.0, 130.0, 41.0, 18.0 ]
				}

			}
, 			{
				"box" : 				{
					"maxclass" : "comment",
					"text" : "Print available ports",
					"numoutlets" : 0,
					"fontname" : "Arial",
					"id" : "obj-10",
					"fontsize" : 12.0,
					"numinlets" : 1,
					"patching_rect" : [ 110.0, 106.0, 150.0, 20.0 ]
				}

			}
, 			{
				"box" : 				{
					"maxclass" : "message",
					"text" : "print",
					"numoutlets" : 1,
					"outlettype" : [ "" ],
					"fontname" : "Arial",
					"id" : "obj-4",
					"fontsize" : 12.0,
					"numinlets" : 2,
					"patching_rect" : [ 72.0, 108.0, 34.0, 18.0 ]
				}

			}
, 			{
				"box" : 				{
					"maxclass" : "newobj",
					"text" : "print",
					"numoutlets" : 0,
					"fontname" : "Arial",
					"id" : "obj-2",
					"fontsize" : 12.0,
					"numinlets" : 1,
					"patching_rect" : [ 74.0, 312.0, 34.0, 20.0 ]
				}

			}
, 			{
				"box" : 				{
					"maxclass" : "newobj",
					"text" : "messenger 115200 h",
					"numoutlets" : 1,
					"outlettype" : [ "int" ],
					"fontname" : "Arial",
					"id" : "obj-1",
					"fontsize" : 12.0,
					"numinlets" : 1,
					"patching_rect" : [ 73.0, 266.0, 122.0, 20.0 ]
				}

			}
 ],
		"lines" : [ 			{
				"patchline" : 				{
					"source" : [ "obj-23", 0 ],
					"destination" : [ "obj-21", 0 ],
					"hidden" : 0,
					"midpoints" : [  ]
				}

			}
, 			{
				"patchline" : 				{
					"source" : [ "obj-21", 0 ],
					"destination" : [ "obj-1", 0 ],
					"hidden" : 0,
					"midpoints" : [  ]
				}

			}
, 			{
				"patchline" : 				{
					"source" : [ "obj-15", 0 ],
					"destination" : [ "obj-1", 0 ],
					"hidden" : 0,
					"midpoints" : [ 82.5, 174.0, 82.5, 174.0 ]
				}

			}
, 			{
				"patchline" : 				{
					"source" : [ "obj-12", 0 ],
					"destination" : [ "obj-1", 0 ],
					"hidden" : 0,
					"midpoints" : [ 84.5, 150.0, 60.0, 150.0, 60.0, 192.0, 82.5, 192.0 ]
				}

			}
, 			{
				"patchline" : 				{
					"source" : [ "obj-4", 0 ],
					"destination" : [ "obj-1", 0 ],
					"hidden" : 0,
					"midpoints" : [ 81.5, 126.0, 57.0, 126.0, 57.0, 192.0, 82.5, 192.0 ]
				}

			}
, 			{
				"patchline" : 				{
					"source" : [ "obj-1", 0 ],
					"destination" : [ "obj-2", 0 ],
					"hidden" : 0,
					"midpoints" : [  ]
				}

			}
 ]
	}

}
